<svg width="92" height="22" viewBox="0 0 92 22" fill="none" xmlns="http://www.w3.org/2000/svg">
<rect x="0.5" y="0.5" width="91" height="21" rx="10.5" fill="#F4FFF8"/>
<rect x="0.5" y="0.5" width="91" height="21" rx="10.5" stroke="#37C577"/>
<path d="M10.444 10.812C10.444 9.996 10.632 9.264 11.008 8.616C11.392 7.968 11.908 7.464 12.556 7.104C13.212 6.736 13.928 6.552 14.704 6.552C15.592 6.552 16.38 6.772 17.068 7.212C17.764 7.644 18.268 8.26 18.58 9.06H16.936C16.72 8.62 16.42 8.292 16.036 8.076C15.652 7.86 15.208 7.752 14.704 7.752C14.152 7.752 13.66 7.876 13.228 8.124C12.796 8.372 12.456 8.728 12.208 9.192C11.968 9.656 11.848 10.196 11.848 10.812C11.848 11.428 11.968 11.968 12.208 12.432C12.456 12.896 12.796 13.256 13.228 13.512C13.66 13.76 14.152 13.884 14.704 13.884C15.208 13.884 15.652 13.776 16.036 13.56C16.42 13.344 16.72 13.016 16.936 12.576H18.58C18.268 13.376 17.764 13.992 17.068 14.424C16.38 14.856 15.592 15.072 14.704 15.072C13.92 15.072 13.204 14.892 12.556 14.532C11.908 14.164 11.392 13.656 11.008 13.008C10.632 12.36 10.444 11.628 10.444 10.812ZM23.5292 15.108C22.9052 15.108 22.3412 14.968 21.8372 14.688C21.3332 14.4 20.9372 14 20.6492 13.488C20.3612 12.968 20.2172 12.368 20.2172 11.688C20.2172 11.016 20.3652 10.42 20.6612 9.9C20.9572 9.38 21.3612 8.98 21.8732 8.7C22.3852 8.42 22.9572 8.28 23.5892 8.28C24.2212 8.28 24.7932 8.42 25.3052 8.7C25.8172 8.98 26.2212 9.38 26.5172 9.9C26.8132 10.42 26.9612 11.016 26.9612 11.688C26.9612 12.36 26.8092 12.956 26.5052 13.476C26.2013 13.996 25.7853 14.4 25.2572 14.688C24.7372 14.968 24.1612 15.108 23.5292 15.108ZM23.5292 13.92C23.8812 13.92 24.2092 13.836 24.5132 13.668C24.8252 13.5 25.0772 13.248 25.2692 12.912C25.4612 12.576 25.5572 12.168 25.5572 11.688C25.5572 11.208 25.4652 10.804 25.2812 10.476C25.0972 10.14 24.8532 9.888 24.5492 9.72C24.2452 9.552 23.9172 9.468 23.5652 9.468C23.2132 9.468 22.8852 9.552 22.5812 9.72C22.2852 9.888 22.0492 10.14 21.8732 10.476C21.6972 10.804 21.6092 11.208 21.6092 11.688C21.6092 12.4 21.7892 12.952 22.1492 13.344C22.5172 13.728 22.9772 13.92 23.5292 13.92ZM36.7976 8.28C37.3176 8.28 37.7816 8.388 38.1896 8.604C38.6056 8.82 38.9296 9.14 39.1616 9.564C39.4016 9.988 39.5216 10.5 39.5216 11.1V15H38.1656V11.304C38.1656 10.712 38.0176 10.26 37.7216 9.948C37.4256 9.628 37.0216 9.468 36.5096 9.468C35.9976 9.468 35.5896 9.628 35.2856 9.948C34.9896 10.26 34.8416 10.712 34.8416 11.304V15H33.4856V11.304C33.4856 10.712 33.3376 10.26 33.0416 9.948C32.7456 9.628 32.3416 9.468 31.8296 9.468C31.3176 9.468 30.9096 9.628 30.6056 9.948C30.3096 10.26 30.1616 10.712 30.1616 11.304V15H28.7936V8.388H30.1616V9.144C30.3856 8.872 30.6696 8.66 31.0136 8.508C31.3576 8.356 31.7256 8.28 32.1176 8.28C32.6456 8.28 33.1176 8.392 33.5336 8.616C33.9496 8.84 34.2696 9.164 34.4936 9.588C34.6936 9.188 35.0056 8.872 35.4296 8.64C35.8536 8.4 36.3096 8.28 36.7976 8.28ZM43.1103 9.36C43.3423 9.056 43.6583 8.8 44.0583 8.592C44.4583 8.384 44.9103 8.28 45.4143 8.28C45.9903 8.28 46.5143 8.424 46.9863 8.712C47.4663 8.992 47.8423 9.388 48.1143 9.9C48.3863 10.412 48.5223 11 48.5223 11.664C48.5223 12.328 48.3863 12.924 48.1143 13.452C47.8423 13.972 47.4663 14.38 46.9863 14.676C46.5143 14.964 45.9903 15.108 45.4143 15.108C44.9103 15.108 44.4623 15.008 44.0703 14.808C43.6783 14.6 43.3583 14.344 43.1103 14.04V18.144H41.7423V8.388H43.1103V9.36ZM47.1303 11.664C47.1303 11.208 47.0343 10.816 46.8423 10.488C46.6583 10.152 46.4103 9.9 46.0983 9.732C45.7943 9.556 45.4663 9.468 45.1143 9.468C44.7703 9.468 44.4423 9.556 44.1303 9.732C43.8263 9.908 43.5783 10.164 43.3863 10.5C43.2023 10.836 43.1103 11.232 43.1103 11.688C43.1103 12.144 43.2023 12.544 43.3863 12.888C43.5783 13.224 43.8263 13.48 44.1303 13.656C44.4423 13.832 44.7703 13.92 45.1143 13.92C45.4663 13.92 45.7943 13.832 46.0983 13.656C46.4103 13.472 46.6583 13.208 46.8423 12.864C47.0343 12.52 47.1303 12.12 47.1303 11.664ZM51.7232 6.12V15H50.3552V6.12H51.7232ZM60.0592 11.532C60.0592 11.78 60.0432 12.004 60.0112 12.204H54.9592C54.9992 12.732 55.1952 13.156 55.5472 13.476C55.8992 13.796 56.3312 13.956 56.8432 13.956C57.5792 13.956 58.0992 13.648 58.4032 13.032H59.8792C59.6792 13.64 59.3152 14.14 58.7872 14.532C58.2672 14.916 57.6192 15.108 56.8432 15.108C56.2112 15.108 55.6432 14.968 55.1392 14.688C54.6432 14.4 54.2512 14 53.9632 13.488C53.6832 12.968 53.5432 12.368 53.5432 11.688C53.5432 11.008 53.6792 10.412 53.9512 9.9C54.2312 9.38 54.6192 8.98 55.1152 8.7C55.6192 8.42 56.1952 8.28 56.8432 8.28C57.4672 8.28 58.0232 8.416 58.5112 8.688C58.9992 8.96 59.3792 9.344 59.6512 9.84C59.9232 10.328 60.0592 10.892 60.0592 11.532ZM58.6312 11.1C58.6232 10.596 58.4432 10.192 58.0912 9.888C57.7392 9.584 57.3032 9.432 56.7832 9.432C56.3112 9.432 55.9072 9.584 55.5712 9.888C55.2352 10.184 55.0352 10.588 54.9712 11.1H58.6312ZM63.4815 9.504V13.164C63.4815 13.412 63.5375 13.592 63.6495 13.704C63.7695 13.808 63.9695 13.86 64.2495 13.86H65.0895V15H64.0095C63.3935 15 62.9215 14.856 62.5935 14.568C62.2655 14.28 62.1015 13.812 62.1015 13.164V9.504H61.3215V8.388H62.1015V6.744H63.4815V8.388H65.0895V9.504H63.4815ZM72.8903 11.532C72.8903 11.78 72.8743 12.004 72.8423 12.204H67.7903C67.8303 12.732 68.0263 13.156 68.3783 13.476C68.7303 13.796 69.1623 13.956 69.6743 13.956C70.4103 13.956 70.9303 13.648 71.2343 13.032H72.7103C72.5103 13.64 72.1463 14.14 71.6183 14.532C71.0983 14.916 70.4503 15.108 69.6743 15.108C69.0423 15.108 68.4743 14.968 67.9703 14.688C67.4743 14.4 67.0823 14 66.7943 13.488C66.5143 12.968 66.3743 12.368 66.3743 11.688C66.3743 11.008 66.5103 10.412 66.7823 9.9C67.0623 9.38 67.4503 8.98 67.9463 8.7C68.4503 8.42 69.0263 8.28 69.6743 8.28C70.2983 8.28 70.8543 8.416 71.3423 8.688C71.8303 8.96 72.2103 9.344 72.4823 9.84C72.7543 10.328 72.8903 10.892 72.8903 11.532ZM71.4623 11.1C71.4543 10.596 71.2743 10.192 70.9223 9.888C70.5703 9.584 70.1343 9.432 69.6143 9.432C69.1423 9.432 68.7383 9.584 68.4023 9.888C68.0663 10.184 67.8663 10.588 67.8023 11.1H71.4623ZM74.2606 11.664C74.2606 11 74.3966 10.412 74.6686 9.9C74.9486 9.388 75.3246 8.992 75.7966 8.712C76.2766 8.424 76.8086 8.28 77.3926 8.28C77.8246 8.28 78.2486 8.376 78.6646 8.568C79.0886 8.752 79.4246 9 79.6726 9.312V6.12H81.0526V15H79.6726V14.004C79.4486 14.324 79.1366 14.588 78.7366 14.796C78.3446 15.004 77.8926 15.108 77.3806 15.108C76.8046 15.108 76.2766 14.964 75.7966 14.676C75.3246 14.38 74.9486 13.972 74.6686 13.452C74.3966 12.924 74.2606 12.328 74.2606 11.664ZM79.6726 11.688C79.6726 11.232 79.5766 10.836 79.3846 10.5C79.2006 10.164 78.9566 9.908 78.6526 9.732C78.3486 9.556 78.0206 9.468 77.6686 9.468C77.3166 9.468 76.9886 9.556 76.6846 9.732C76.3806 9.9 76.1326 10.152 75.9406 10.488C75.7566 10.816 75.6646 11.208 75.6646 11.664C75.6646 12.12 75.7566 12.52 75.9406 12.864C76.1326 13.208 76.3806 13.472 76.6846 13.656C76.9966 13.832 77.3246 13.92 77.6686 13.92C78.0206 13.92 78.3486 13.832 78.6526 13.656C78.9566 13.48 79.2006 13.224 79.3846 12.888C79.5766 12.544 79.6726 12.144 79.6726 11.688Z" fill="#37C577"/>
</svg>
