<svg width="92" height="22" viewBox="0 0 92 22" fill="none" xmlns="http://www.w3.org/2000/svg">
<rect x="0.5" y="0.5" width="72" height="21" rx="10.5" fill="#FFF8EE"/>
<rect x="0.5" y="0.5" width="72" height="21" rx="10.5" stroke="#EC9D3E"/>
<path d="M16.732 9.144C16.732 9.568 16.632 9.968 16.432 10.344C16.232 10.72 15.912 11.028 15.472 11.268C15.032 11.5 14.468 11.616 13.78 11.616H12.268V15H10.9V6.66H13.78C14.42 6.66 14.96 6.772 15.4 6.996C15.848 7.212 16.18 7.508 16.396 7.884C16.62 8.26 16.732 8.68 16.732 9.144ZM13.78 10.5C14.3 10.5 14.688 10.384 14.944 10.152C15.2 9.912 15.328 9.576 15.328 9.144C15.328 8.232 14.812 7.776 13.78 7.776H12.268V10.5H13.78ZM24.5767 11.532C24.5767 11.78 24.5607 12.004 24.5287 12.204H19.4767C19.5167 12.732 19.7127 13.156 20.0647 13.476C20.4167 13.796 20.8487 13.956 21.3607 13.956C22.0967 13.956 22.6167 13.648 22.9207 13.032H24.3967C24.1967 13.64 23.8327 14.14 23.3047 14.532C22.7847 14.916 22.1367 15.108 21.3607 15.108C20.7287 15.108 20.1607 14.968 19.6567 14.688C19.1607 14.4 18.7687 14 18.4807 13.488C18.2007 12.968 18.0607 12.368 18.0607 11.688C18.0607 11.008 18.1967 10.412 18.4687 9.9C18.7487 9.38 19.1367 8.98 19.6327 8.7C20.1367 8.42 20.7127 8.28 21.3607 8.28C21.9847 8.28 22.5407 8.416 23.0287 8.688C23.5167 8.96 23.8967 9.344 24.1687 9.84C24.4407 10.328 24.5767 10.892 24.5767 11.532ZM23.1487 11.1C23.1407 10.596 22.9607 10.192 22.6087 9.888C22.2567 9.584 21.8207 9.432 21.3007 9.432C20.8287 9.432 20.4247 9.584 20.0887 9.888C19.7527 10.184 19.5527 10.588 19.4887 11.1H23.1487ZM29.739 8.28C30.259 8.28 30.723 8.388 31.131 8.604C31.547 8.82 31.871 9.14 32.103 9.564C32.335 9.988 32.451 10.5 32.451 11.1V15H31.095V11.304C31.095 10.712 30.947 10.26 30.651 9.948C30.355 9.628 29.951 9.468 29.439 9.468C28.927 9.468 28.519 9.628 28.215 9.948C27.919 10.26 27.771 10.712 27.771 11.304V15H26.403V8.388H27.771V9.144C27.995 8.872 28.279 8.66 28.623 8.508C28.975 8.356 29.347 8.28 29.739 8.28ZM34.2199 11.664C34.2199 11 34.3559 10.412 34.6279 9.9C34.9079 9.388 35.2839 8.992 35.7559 8.712C36.2359 8.424 36.7679 8.28 37.3519 8.28C37.7839 8.28 38.2079 8.376 38.6239 8.568C39.0479 8.752 39.3839 9 39.6319 9.312V6.12H41.0119V15H39.6319V14.004C39.4079 14.324 39.0959 14.588 38.6959 14.796C38.3039 15.004 37.8519 15.108 37.3399 15.108C36.7639 15.108 36.2359 14.964 35.7559 14.676C35.2839 14.38 34.9079 13.972 34.6279 13.452C34.3559 12.924 34.2199 12.328 34.2199 11.664ZM39.6319 11.688C39.6319 11.232 39.5359 10.836 39.3439 10.5C39.1599 10.164 38.9159 9.908 38.6119 9.732C38.3079 9.556 37.9799 9.468 37.6279 9.468C37.2759 9.468 36.9479 9.556 36.6439 9.732C36.3399 9.9 36.0919 10.152 35.8999 10.488C35.7159 10.816 35.6239 11.208 35.6239 11.664C35.6239 12.12 35.7159 12.52 35.8999 12.864C36.0919 13.208 36.3399 13.472 36.6439 13.656C36.9559 13.832 37.2839 13.92 37.6279 13.92C37.9799 13.92 38.3079 13.832 38.6119 13.656C38.9159 13.48 39.1599 13.224 39.3439 12.888C39.5359 12.544 39.6319 12.144 39.6319 11.688ZM43.9847 7.512C43.7367 7.512 43.5287 7.428 43.3607 7.26C43.1927 7.092 43.1087 6.884 43.1087 6.636C43.1087 6.388 43.1927 6.18 43.3607 6.012C43.5287 5.844 43.7367 5.76 43.9847 5.76C44.2247 5.76 44.4287 5.844 44.5967 6.012C44.7647 6.18 44.8487 6.388 44.8487 6.636C44.8487 6.884 44.7647 7.092 44.5967 7.26C44.4287 7.428 44.2247 7.512 43.9847 7.512ZM44.6567 8.388V15H43.2887V8.388H44.6567ZM50.2688 8.28C50.7888 8.28 51.2528 8.388 51.6608 8.604C52.0768 8.82 52.4008 9.14 52.6328 9.564C52.8648 9.988 52.9808 10.5 52.9808 11.1V15H51.6248V11.304C51.6248 10.712 51.4768 10.26 51.1808 9.948C50.8848 9.628 50.4808 9.468 49.9688 9.468C49.4568 9.468 49.0488 9.628 48.7448 9.948C48.4488 10.26 48.3008 10.712 48.3008 11.304V15H46.9328V8.388H48.3008V9.144C48.5248 8.872 48.8088 8.66 49.1528 8.508C49.5048 8.356 49.8768 8.28 50.2688 8.28ZM57.8698 8.28C58.3818 8.28 58.8338 8.384 59.2258 8.592C59.6258 8.792 59.9378 9.044 60.1618 9.348V8.388H61.5418V15.108C61.5418 15.716 61.4138 16.256 61.1578 16.728C60.9018 17.208 60.5298 17.584 60.0418 17.856C59.5618 18.128 58.9858 18.264 58.3138 18.264C57.4178 18.264 56.6738 18.052 56.0818 17.628C55.4898 17.212 55.1538 16.644 55.0738 15.924H56.4298C56.5338 16.268 56.7538 16.544 57.0898 16.752C57.4338 16.968 57.8418 17.076 58.3138 17.076C58.8658 17.076 59.3098 16.908 59.6458 16.572C59.9898 16.236 60.1618 15.748 60.1618 15.108V14.004C59.9298 14.316 59.6138 14.58 59.2138 14.796C58.8218 15.004 58.3738 15.108 57.8698 15.108C57.2938 15.108 56.7658 14.964 56.2858 14.676C55.8138 14.38 55.4378 13.972 55.1578 13.452C54.8858 12.924 54.7498 12.328 54.7498 11.664C54.7498 11 54.8858 10.412 55.1578 9.9C55.4378 9.388 55.8138 8.992 56.2858 8.712C56.7658 8.424 57.2938 8.28 57.8698 8.28ZM60.1618 11.688C60.1618 11.232 60.0658 10.836 59.8738 10.5C59.6898 10.164 59.4458 9.908 59.1418 9.732C58.8378 9.556 58.5098 9.468 58.1578 9.468C57.8058 9.468 57.4778 9.556 57.1738 9.732C56.8698 9.9 56.6218 10.152 56.4298 10.488C56.2458 10.816 56.1538 11.208 56.1538 11.664C56.1538 12.12 56.2458 12.52 56.4298 12.864C56.6218 13.208 56.8698 13.472 57.1738 13.656C57.4858 13.832 57.8138 13.92 58.1578 13.92C58.5098 13.92 58.8378 13.832 59.1418 13.656C59.4458 13.48 59.6898 13.224 59.8738 12.888C60.0658 12.544 60.1618 12.144 60.1618 11.688Z" fill="#EC9D3E"/>
</svg>
