<svg width="100" height="18" viewBox="0 0 100 18" fill="none" xmlns="http://www.w3.org/2000/svg">
<path d="M5.25 9.96249V8.41666L6.41667 9.58332" stroke="#7D54F3" stroke-linecap="round" stroke-linejoin="round"/>
<path d="M5.25 11.9167V11.3333" stroke="#7D54F3" stroke-linecap="round" stroke-linejoin="round"/>
<path d="M5.25004 8.41666L4.08337 9.58332" stroke="#7D54F3" stroke-linecap="round" stroke-linejoin="round"/>
<path d="M1.16663 7.24999C1.16663 4.33332 2.33329 3.16666 5.24996 3.16666H8.16663" stroke="#7D54F3" stroke-linecap="round" stroke-linejoin="round"/>
<path d="M12.8333 7.83334V10.75C12.8333 13.6667 11.6666 14.8333 8.74996 14.8333H5.24996C2.33329 14.8333 1.16663 13.6667 1.16663 10.75V9.57168" stroke="#7D54F3" stroke-linecap="round" stroke-linejoin="round"/>
<path d="M10.5 7.83332C8.74996 7.83332 8.16663 7.24999 8.16663 5.49999V3.16666L12.8333 7.83332" stroke="#7D54F3" stroke-linecap="round" stroke-linejoin="round"/>
<path d="M22.484 4.624V9.808C22.484 10.376 22.632 10.812 22.928 11.116C23.224 11.412 23.64 11.56 24.176 11.56C24.72 11.56 25.14 11.412 25.436 11.116C25.732 10.812 25.88 10.376 25.88 9.808V4.624H27.572V9.796C27.572 10.508 27.416 11.112 27.104 11.608C26.8 12.096 26.388 12.464 25.868 12.712C25.356 12.96 24.784 13.084 24.152 13.084C23.528 13.084 22.96 12.96 22.448 12.712C21.944 12.464 21.544 12.096 21.248 11.608C20.952 11.112 20.804 10.508 20.804 9.796V4.624H22.484ZM30.8752 7.312C31.0912 7.008 31.3872 6.756 31.7632 6.556C32.1472 6.348 32.5832 6.244 33.0712 6.244C33.6392 6.244 34.1512 6.384 34.6072 6.664C35.0712 6.944 35.4352 7.344 35.6992 7.864C35.9712 8.376 36.1072 8.972 36.1072 9.652C36.1072 10.332 35.9712 10.936 35.6992 11.464C35.4352 11.984 35.0712 12.388 34.6072 12.676C34.1512 12.964 33.6392 13.108 33.0712 13.108C32.5832 13.108 32.1512 13.008 31.7752 12.808C31.4072 12.608 31.1072 12.356 30.8752 12.052V16.168H29.1952V6.352H30.8752V7.312ZM34.3912 9.652C34.3912 9.252 34.3072 8.908 34.1392 8.62C33.9792 8.324 33.7632 8.1 33.4912 7.948C33.2272 7.796 32.9392 7.72 32.6272 7.72C32.3232 7.72 32.0352 7.8 31.7632 7.96C31.4992 8.112 31.2832 8.336 31.1152 8.632C30.9552 8.928 30.8752 9.276 30.8752 9.676C30.8752 10.076 30.9552 10.424 31.1152 10.72C31.2832 11.016 31.4992 11.244 31.7632 11.404C32.0352 11.556 32.3232 11.632 32.6272 11.632C32.9392 11.632 33.2272 11.552 33.4912 11.392C33.7632 11.232 33.9792 11.004 34.1392 10.708C34.3072 10.412 34.3912 10.06 34.3912 9.652ZM39.008 4.12V13H37.328V4.12H39.008ZM43.6198 13.108C42.9798 13.108 42.4038 12.968 41.8918 12.688C41.3798 12.4 40.9758 11.996 40.6798 11.476C40.3918 10.956 40.2478 10.356 40.2478 9.676C40.2478 8.996 40.3958 8.396 40.6918 7.876C40.9958 7.356 41.4078 6.956 41.9278 6.676C42.4478 6.388 43.0278 6.244 43.6678 6.244C44.3078 6.244 44.8878 6.388 45.4078 6.676C45.9278 6.956 46.3358 7.356 46.6318 7.876C46.9358 8.396 47.0878 8.996 47.0878 9.676C47.0878 10.356 46.9318 10.956 46.6198 11.476C46.3158 11.996 45.8998 12.4 45.3718 12.688C44.8518 12.968 44.2678 13.108 43.6198 13.108ZM43.6198 11.644C43.9238 11.644 44.2078 11.572 44.4718 11.428C44.7438 11.276 44.9598 11.052 45.1198 10.756C45.2798 10.46 45.3598 10.1 45.3598 9.676C45.3598 9.044 45.1918 8.56 44.8558 8.224C44.5278 7.88 44.1238 7.708 43.6438 7.708C43.1638 7.708 42.7598 7.88 42.4318 8.224C42.1118 8.56 41.9518 9.044 41.9518 9.676C41.9518 10.308 42.1078 10.796 42.4198 11.14C42.7398 11.476 43.1398 11.644 43.6198 11.644ZM47.8882 9.652C47.8882 8.98 48.0202 8.384 48.2842 7.864C48.5562 7.344 48.9202 6.944 49.3762 6.664C49.8402 6.384 50.3562 6.244 50.9242 6.244C51.4202 6.244 51.8522 6.344 52.2202 6.544C52.5962 6.744 52.8962 6.996 53.1202 7.3V6.352H54.8122V13H53.1202V12.028C52.9042 12.34 52.6042 12.6 52.2202 12.808C51.8442 13.008 51.4082 13.108 50.9122 13.108C50.3522 13.108 49.8402 12.964 49.3762 12.676C48.9202 12.388 48.5562 11.984 48.2842 11.464C48.0202 10.936 47.8882 10.332 47.8882 9.652ZM53.1202 9.676C53.1202 9.268 53.0402 8.92 52.8802 8.632C52.7202 8.336 52.5042 8.112 52.2322 7.96C51.9602 7.8 51.6682 7.72 51.3562 7.72C51.0442 7.72 50.7562 7.796 50.4922 7.948C50.2282 8.1 50.0122 8.324 49.8442 8.62C49.6842 8.908 49.6042 9.252 49.6042 9.652C49.6042 10.052 49.6842 10.404 49.8442 10.708C50.0122 11.004 50.2282 11.232 50.4922 11.392C50.7642 11.552 51.0522 11.632 51.3562 11.632C51.6682 11.632 51.9602 11.556 52.2322 11.404C52.5042 11.244 52.7202 11.02 52.8802 10.732C53.0402 10.436 53.1202 10.084 53.1202 9.676ZM56.021 9.652C56.021 8.98 56.153 8.384 56.417 7.864C56.689 7.344 57.057 6.944 57.521 6.664C57.985 6.384 58.501 6.244 59.069 6.244C59.501 6.244 59.913 6.34 60.305 6.532C60.697 6.716 61.009 6.964 61.241 7.276V4.12H62.945V13H61.241V12.016C61.033 12.344 60.741 12.608 60.365 12.808C59.989 13.008 59.553 13.108 59.057 13.108C58.497 13.108 57.985 12.964 57.521 12.676C57.057 12.388 56.689 11.984 56.417 11.464C56.153 10.936 56.021 10.332 56.021 9.652ZM61.253 9.676C61.253 9.268 61.173 8.92 61.013 8.632C60.853 8.336 60.637 8.112 60.365 7.96C60.093 7.8 59.801 7.72 59.489 7.72C59.177 7.72 58.889 7.796 58.625 7.948C58.361 8.1 58.145 8.324 57.977 8.62C57.817 8.908 57.737 9.252 57.737 9.652C57.737 10.052 57.817 10.404 57.977 10.708C58.145 11.004 58.361 11.232 58.625 11.392C58.897 11.552 59.185 11.632 59.489 11.632C59.801 11.632 60.093 11.556 60.365 11.404C60.637 11.244 60.853 11.02 61.013 10.732C61.173 10.436 61.253 10.084 61.253 9.676Z" fill="#7D54F3"/>
<path d="M20 14.2H36.5032V14.8H20V14.2ZM36.5 14.2H47.4958V14.8H36.5V14.2ZM47.4922 14.2H55.6282V14.8H47.4922V14.2ZM55.625 14.2H63.761V14.8H55.625V14.2Z" fill="#7D54F3"/>
</svg>
