<svg width="50" height="18" viewBox="0 0 50 18" fill="none" xmlns="http://www.w3.org/2000/svg">
<path d="M5.26745 10.1667C5.03995 9.83418 4.91162 9.43168 4.91162 9.00002C4.91162 7.84502 5.84495 6.91168 6.99995 6.91168C8.15495 6.91168 9.08829 7.84502 9.08829 9.00002C9.08829 10.155 8.15495 11.0883 6.99995 11.0883" stroke="#37C577" stroke-linecap="round" stroke-linejoin="round"/>
<path d="M10.2434 5.25501C9.25753 4.55501 8.1492 4.17584 7.00003 4.17584C4.94086 4.17584 3.0217 5.38918 1.68586 7.48918C1.16086 8.31168 1.16086 9.69418 1.68586 10.5167C3.0217 12.6167 4.94086 13.83 7.00003 13.83C9.0592 13.83 10.9784 12.6167 12.3142 10.5167C12.8392 9.69418 12.8392 8.31168 12.3142 7.48918" stroke="#37C577" stroke-linecap="round" stroke-linejoin="round"/>
<path d="M28.352 4.624L25.28 13H23.24L20.168 4.624H21.968L24.272 11.284L26.564 4.624H28.352ZM30.2113 5.56C29.9153 5.56 29.6673 5.468 29.4673 5.284C29.2753 5.092 29.1793 4.856 29.1793 4.576C29.1793 4.296 29.2753 4.064 29.4673 3.88C29.6673 3.688 29.9153 3.592 30.2113 3.592C30.5073 3.592 30.7513 3.688 30.9433 3.88C31.1433 4.064 31.2433 4.296 31.2433 4.576C31.2433 4.856 31.1433 5.092 30.9433 5.284C30.7513 5.468 30.5073 5.56 30.2113 5.56ZM31.0393 6.352V13H29.3593V6.352H31.0393ZM38.8791 9.532C38.8791 9.772 38.8631 9.988 38.8311 10.18H33.9711C34.0111 10.66 34.1791 11.036 34.4751 11.308C34.7711 11.58 35.1351 11.716 35.5671 11.716C36.1911 11.716 36.6351 11.448 36.8991 10.912H38.7111C38.5191 11.552 38.1511 12.08 37.6071 12.496C37.0631 12.904 36.3951 13.108 35.6031 13.108C34.9631 13.108 34.3871 12.968 33.8751 12.688C33.3711 12.4 32.9751 11.996 32.6871 11.476C32.4071 10.956 32.2671 10.356 32.2671 9.676C32.2671 8.988 32.4071 8.384 32.6871 7.864C32.9671 7.344 33.3591 6.944 33.8631 6.664C34.3671 6.384 34.9471 6.244 35.6031 6.244C36.2351 6.244 36.7991 6.38 37.2951 6.652C37.7991 6.924 38.1871 7.312 38.4591 7.816C38.7391 8.312 38.8791 8.884 38.8791 9.532ZM37.1391 9.052C37.1311 8.62 36.9751 8.276 36.6711 8.02C36.3671 7.756 35.9951 7.624 35.5551 7.624C35.1391 7.624 34.7871 7.752 34.4991 8.008C34.2191 8.256 34.0471 8.604 33.9831 9.052H37.1391ZM49.3213 6.352L47.3773 13H45.5653L44.3533 8.356L43.1413 13H41.3173L39.3613 6.352H41.0653L42.2413 11.416L43.5133 6.352H45.2893L46.5373 11.404L47.7133 6.352H49.3213Z" fill="#37C577"/>
<path d="M20 14.2H28.532V14.8H20V14.2ZM28.5312 14.2H49.4053V14.8H28.5312V14.2Z" fill="#37C577"/>
</svg>
